<mxfile host="app.diagrams.net" modified="2022-10-13T11:44:30.580Z" agent="5.0 (Windows NT 10.0; Win64; x64) AppleWebKit/537.36 (KHTML, like Gecko) Chrome/106.0.0.0 Safari/537.36" etag="shDYb1mPfTswSL5xvgRD" version="20.4.0" type="github">
  <diagram id="C5RBs43oDa-KdzZeNtuy" name="Page-1">
    <mxGraphModel dx="1447" dy="767" grid="1" gridSize="10" guides="1" tooltips="1" connect="1" arrows="0" fold="1" page="1" pageScale="1" pageWidth="827" pageHeight="1169" math="0" shadow="0">
      <root>
        <mxCell id="WIyWlLk6GJQsqaUBKTNV-0" />
        <mxCell id="WIyWlLk6GJQsqaUBKTNV-1" parent="WIyWlLk6GJQsqaUBKTNV-0" />
        <mxCell id="MPABOSV00BWpkClz_oib-4" style="edgeStyle=orthogonalEdgeStyle;rounded=0;orthogonalLoop=1;jettySize=auto;html=1;exitX=0.5;exitY=1;exitDx=0;exitDy=0;entryX=0.5;entryY=0;entryDx=0;entryDy=0;" edge="1" parent="WIyWlLk6GJQsqaUBKTNV-1" source="MPABOSV00BWpkClz_oib-0" target="MPABOSV00BWpkClz_oib-3">
          <mxGeometry relative="1" as="geometry" />
        </mxCell>
        <mxCell id="MPABOSV00BWpkClz_oib-0" value="out (Introduce el valor para el dado 1)" style="rounded=1;whiteSpace=wrap;html=1;fillColor=#60a917;fontColor=#ffffff;strokeColor=#2D7600;" vertex="1" parent="WIyWlLk6GJQsqaUBKTNV-1">
          <mxGeometry x="354" y="100" width="120" height="60" as="geometry" />
        </mxCell>
        <mxCell id="MPABOSV00BWpkClz_oib-6" style="edgeStyle=orthogonalEdgeStyle;rounded=0;orthogonalLoop=1;jettySize=auto;html=1;exitX=0.5;exitY=1;exitDx=0;exitDy=0;entryX=0.5;entryY=0;entryDx=0;entryDy=0;" edge="1" parent="WIyWlLk6GJQsqaUBKTNV-1" source="MPABOSV00BWpkClz_oib-3" target="MPABOSV00BWpkClz_oib-5">
          <mxGeometry relative="1" as="geometry" />
        </mxCell>
        <mxCell id="MPABOSV00BWpkClz_oib-3" value="String dado1&amp;nbsp; = read.nextLine" style="rounded=1;whiteSpace=wrap;html=1;fillColor=#a20025;fontColor=#ffffff;strokeColor=#6F0000;" vertex="1" parent="WIyWlLk6GJQsqaUBKTNV-1">
          <mxGeometry x="354" y="180" width="120" height="60" as="geometry" />
        </mxCell>
        <mxCell id="MPABOSV00BWpkClz_oib-14" style="edgeStyle=orthogonalEdgeStyle;rounded=0;orthogonalLoop=1;jettySize=auto;html=1;exitX=0.5;exitY=1;exitDx=0;exitDy=0;entryX=0.5;entryY=0;entryDx=0;entryDy=0;" edge="1" parent="WIyWlLk6GJQsqaUBKTNV-1" source="MPABOSV00BWpkClz_oib-5" target="MPABOSV00BWpkClz_oib-10">
          <mxGeometry relative="1" as="geometry" />
        </mxCell>
        <mxCell id="MPABOSV00BWpkClz_oib-15" style="edgeStyle=orthogonalEdgeStyle;rounded=0;orthogonalLoop=1;jettySize=auto;html=1;exitX=0.5;exitY=1;exitDx=0;exitDy=0;entryX=0.5;entryY=0;entryDx=0;entryDy=0;" edge="1" parent="WIyWlLk6GJQsqaUBKTNV-1" source="MPABOSV00BWpkClz_oib-5" target="MPABOSV00BWpkClz_oib-9">
          <mxGeometry relative="1" as="geometry" />
        </mxCell>
        <mxCell id="MPABOSV00BWpkClz_oib-27" value="case &quot;DOS&quot;" style="edgeLabel;html=1;align=center;verticalAlign=middle;resizable=0;points=[];" vertex="1" connectable="0" parent="MPABOSV00BWpkClz_oib-15">
          <mxGeometry x="0.8405" relative="1" as="geometry">
            <mxPoint y="2" as="offset" />
          </mxGeometry>
        </mxCell>
        <mxCell id="MPABOSV00BWpkClz_oib-16" style="edgeStyle=orthogonalEdgeStyle;rounded=0;orthogonalLoop=1;jettySize=auto;html=1;exitX=0.5;exitY=1;exitDx=0;exitDy=0;entryX=0.5;entryY=0;entryDx=0;entryDy=0;" edge="1" parent="WIyWlLk6GJQsqaUBKTNV-1" source="MPABOSV00BWpkClz_oib-5" target="MPABOSV00BWpkClz_oib-8">
          <mxGeometry relative="1" as="geometry" />
        </mxCell>
        <mxCell id="MPABOSV00BWpkClz_oib-17" style="edgeStyle=orthogonalEdgeStyle;rounded=0;orthogonalLoop=1;jettySize=auto;html=1;exitX=0.5;exitY=1;exitDx=0;exitDy=0;entryX=0.5;entryY=0;entryDx=0;entryDy=0;" edge="1" parent="WIyWlLk6GJQsqaUBKTNV-1" source="MPABOSV00BWpkClz_oib-5" target="MPABOSV00BWpkClz_oib-11">
          <mxGeometry relative="1" as="geometry" />
        </mxCell>
        <mxCell id="MPABOSV00BWpkClz_oib-18" style="edgeStyle=orthogonalEdgeStyle;rounded=0;orthogonalLoop=1;jettySize=auto;html=1;exitX=0.5;exitY=1;exitDx=0;exitDy=0;entryX=0.5;entryY=0;entryDx=0;entryDy=0;" edge="1" parent="WIyWlLk6GJQsqaUBKTNV-1" source="MPABOSV00BWpkClz_oib-5" target="MPABOSV00BWpkClz_oib-12">
          <mxGeometry relative="1" as="geometry" />
        </mxCell>
        <mxCell id="MPABOSV00BWpkClz_oib-19" style="edgeStyle=orthogonalEdgeStyle;rounded=0;orthogonalLoop=1;jettySize=auto;html=1;exitX=0.5;exitY=1;exitDx=0;exitDy=0;entryX=0.5;entryY=0;entryDx=0;entryDy=0;" edge="1" parent="WIyWlLk6GJQsqaUBKTNV-1" source="MPABOSV00BWpkClz_oib-5" target="MPABOSV00BWpkClz_oib-13">
          <mxGeometry relative="1" as="geometry" />
        </mxCell>
        <mxCell id="MPABOSV00BWpkClz_oib-28" value="case &quot;SEIS&quot;" style="edgeLabel;html=1;align=center;verticalAlign=middle;resizable=0;points=[];" vertex="1" connectable="0" parent="MPABOSV00BWpkClz_oib-19">
          <mxGeometry x="0.88" y="-1" relative="1" as="geometry">
            <mxPoint x="1" y="5" as="offset" />
          </mxGeometry>
        </mxCell>
        <mxCell id="MPABOSV00BWpkClz_oib-5" value="switch dado1" style="shape=hexagon;perimeter=hexagonPerimeter2;whiteSpace=wrap;html=1;fixedSize=1;fillColor=#6a00ff;fontColor=#ffffff;strokeColor=#3700CC;" vertex="1" parent="WIyWlLk6GJQsqaUBKTNV-1">
          <mxGeometry x="354" y="290" width="120" height="50" as="geometry" />
        </mxCell>
        <mxCell id="MPABOSV00BWpkClz_oib-39" style="edgeStyle=orthogonalEdgeStyle;rounded=0;orthogonalLoop=1;jettySize=auto;html=1;exitX=0.5;exitY=1;exitDx=0;exitDy=0;entryX=0.5;entryY=0;entryDx=0;entryDy=0;" edge="1" parent="WIyWlLk6GJQsqaUBKTNV-1" source="MPABOSV00BWpkClz_oib-8" target="MPABOSV00BWpkClz_oib-33">
          <mxGeometry relative="1" as="geometry" />
        </mxCell>
        <mxCell id="MPABOSV00BWpkClz_oib-8" value="resultado++" style="shape=process;whiteSpace=wrap;html=1;backgroundOutline=1;fillColor=#1ba1e2;fontColor=#ffffff;strokeColor=#006EAF;" vertex="1" parent="WIyWlLk6GJQsqaUBKTNV-1">
          <mxGeometry x="4" y="410" width="120" height="60" as="geometry" />
        </mxCell>
        <mxCell id="MPABOSV00BWpkClz_oib-38" style="edgeStyle=orthogonalEdgeStyle;rounded=0;orthogonalLoop=1;jettySize=auto;html=1;exitX=0.5;exitY=1;exitDx=0;exitDy=0;entryX=0.5;entryY=0;entryDx=0;entryDy=0;" edge="1" parent="WIyWlLk6GJQsqaUBKTNV-1" source="MPABOSV00BWpkClz_oib-9" target="MPABOSV00BWpkClz_oib-33">
          <mxGeometry relative="1" as="geometry" />
        </mxCell>
        <mxCell id="MPABOSV00BWpkClz_oib-9" value="resultado += 2" style="shape=process;whiteSpace=wrap;html=1;backgroundOutline=1;fillColor=#1ba1e2;fontColor=#ffffff;strokeColor=#006EAF;" vertex="1" parent="WIyWlLk6GJQsqaUBKTNV-1">
          <mxGeometry x="144" y="410" width="120" height="60" as="geometry" />
        </mxCell>
        <mxCell id="MPABOSV00BWpkClz_oib-35" style="edgeStyle=orthogonalEdgeStyle;rounded=0;orthogonalLoop=1;jettySize=auto;html=1;exitX=0.5;exitY=1;exitDx=0;exitDy=0;entryX=0.5;entryY=0;entryDx=0;entryDy=0;" edge="1" parent="WIyWlLk6GJQsqaUBKTNV-1" source="MPABOSV00BWpkClz_oib-10" target="MPABOSV00BWpkClz_oib-33">
          <mxGeometry relative="1" as="geometry" />
        </mxCell>
        <mxCell id="MPABOSV00BWpkClz_oib-10" value="resultado += 3" style="shape=process;whiteSpace=wrap;html=1;backgroundOutline=1;fillColor=#1ba1e2;fontColor=#ffffff;strokeColor=#006EAF;" vertex="1" parent="WIyWlLk6GJQsqaUBKTNV-1">
          <mxGeometry x="284" y="410" width="120" height="60" as="geometry" />
        </mxCell>
        <mxCell id="MPABOSV00BWpkClz_oib-34" style="edgeStyle=orthogonalEdgeStyle;rounded=0;orthogonalLoop=1;jettySize=auto;html=1;exitX=0.5;exitY=1;exitDx=0;exitDy=0;entryX=0.5;entryY=0;entryDx=0;entryDy=0;" edge="1" parent="WIyWlLk6GJQsqaUBKTNV-1" source="MPABOSV00BWpkClz_oib-11" target="MPABOSV00BWpkClz_oib-33">
          <mxGeometry relative="1" as="geometry" />
        </mxCell>
        <mxCell id="MPABOSV00BWpkClz_oib-11" value="resultado += 4" style="shape=process;whiteSpace=wrap;html=1;backgroundOutline=1;fillColor=#1ba1e2;fontColor=#ffffff;strokeColor=#006EAF;" vertex="1" parent="WIyWlLk6GJQsqaUBKTNV-1">
          <mxGeometry x="424" y="410" width="120" height="60" as="geometry" />
        </mxCell>
        <mxCell id="MPABOSV00BWpkClz_oib-36" style="edgeStyle=orthogonalEdgeStyle;rounded=0;orthogonalLoop=1;jettySize=auto;html=1;exitX=0.5;exitY=1;exitDx=0;exitDy=0;entryX=0.5;entryY=0;entryDx=0;entryDy=0;" edge="1" parent="WIyWlLk6GJQsqaUBKTNV-1" source="MPABOSV00BWpkClz_oib-12" target="MPABOSV00BWpkClz_oib-33">
          <mxGeometry relative="1" as="geometry" />
        </mxCell>
        <mxCell id="MPABOSV00BWpkClz_oib-12" value="resultado += 5" style="shape=process;whiteSpace=wrap;html=1;backgroundOutline=1;fillColor=#1ba1e2;fontColor=#ffffff;strokeColor=#006EAF;" vertex="1" parent="WIyWlLk6GJQsqaUBKTNV-1">
          <mxGeometry x="564" y="410" width="120" height="60" as="geometry" />
        </mxCell>
        <mxCell id="MPABOSV00BWpkClz_oib-37" style="edgeStyle=orthogonalEdgeStyle;rounded=0;orthogonalLoop=1;jettySize=auto;html=1;exitX=0.5;exitY=1;exitDx=0;exitDy=0;entryX=0.5;entryY=0;entryDx=0;entryDy=0;" edge="1" parent="WIyWlLk6GJQsqaUBKTNV-1" source="MPABOSV00BWpkClz_oib-13" target="MPABOSV00BWpkClz_oib-33">
          <mxGeometry relative="1" as="geometry" />
        </mxCell>
        <mxCell id="MPABOSV00BWpkClz_oib-13" value="resultado += 6" style="shape=process;whiteSpace=wrap;html=1;backgroundOutline=1;fillColor=#1ba1e2;fontColor=#ffffff;strokeColor=#006EAF;" vertex="1" parent="WIyWlLk6GJQsqaUBKTNV-1">
          <mxGeometry x="704" y="410" width="120" height="60" as="geometry" />
        </mxCell>
        <mxCell id="MPABOSV00BWpkClz_oib-29" value="case &quot;CINCO&quot;" style="edgeLabel;html=1;align=center;verticalAlign=middle;resizable=0;points=[];" vertex="1" connectable="0" parent="WIyWlLk6GJQsqaUBKTNV-1">
          <mxGeometry x="623.9999999999998" y="390.0019047619049" as="geometry" />
        </mxCell>
        <mxCell id="MPABOSV00BWpkClz_oib-30" value="case &quot;CUATRO&quot;" style="edgeLabel;html=1;align=center;verticalAlign=middle;resizable=0;points=[];" vertex="1" connectable="0" parent="WIyWlLk6GJQsqaUBKTNV-1">
          <mxGeometry x="483.9999999999998" y="390.0019047619049" as="geometry" />
        </mxCell>
        <mxCell id="MPABOSV00BWpkClz_oib-31" value="case &quot;TRES&quot;" style="edgeLabel;html=1;align=center;verticalAlign=middle;resizable=0;points=[];" vertex="1" connectable="0" parent="WIyWlLk6GJQsqaUBKTNV-1">
          <mxGeometry x="343.9999999999998" y="390.0019047619049" as="geometry" />
        </mxCell>
        <mxCell id="MPABOSV00BWpkClz_oib-32" value="case &quot;UNO&quot;" style="edgeLabel;html=1;align=center;verticalAlign=middle;resizable=0;points=[];" vertex="1" connectable="0" parent="WIyWlLk6GJQsqaUBKTNV-1">
          <mxGeometry x="63.99999999999977" y="390.0019047619049" as="geometry" />
        </mxCell>
        <mxCell id="MPABOSV00BWpkClz_oib-41" style="edgeStyle=orthogonalEdgeStyle;rounded=0;orthogonalLoop=1;jettySize=auto;html=1;exitX=0.5;exitY=1;exitDx=0;exitDy=0;entryX=0.5;entryY=0;entryDx=0;entryDy=0;" edge="1" parent="WIyWlLk6GJQsqaUBKTNV-1" source="MPABOSV00BWpkClz_oib-33" target="MPABOSV00BWpkClz_oib-40">
          <mxGeometry relative="1" as="geometry" />
        </mxCell>
        <mxCell id="MPABOSV00BWpkClz_oib-33" value="out (Introduce el valor para el dado 2)" style="rounded=1;whiteSpace=wrap;html=1;fillColor=#60a917;fontColor=#ffffff;strokeColor=#2D7600;" vertex="1" parent="WIyWlLk6GJQsqaUBKTNV-1">
          <mxGeometry x="354" y="520" width="120" height="60" as="geometry" />
        </mxCell>
        <mxCell id="MPABOSV00BWpkClz_oib-62" style="edgeStyle=orthogonalEdgeStyle;rounded=0;orthogonalLoop=1;jettySize=auto;html=1;exitX=0.5;exitY=1;exitDx=0;exitDy=0;entryX=0.5;entryY=0;entryDx=0;entryDy=0;" edge="1" parent="WIyWlLk6GJQsqaUBKTNV-1" source="MPABOSV00BWpkClz_oib-40" target="MPABOSV00BWpkClz_oib-50">
          <mxGeometry relative="1" as="geometry" />
        </mxCell>
        <mxCell id="MPABOSV00BWpkClz_oib-40" value="String dado2&amp;nbsp; = read.nextLine" style="rounded=1;whiteSpace=wrap;html=1;fillColor=#a20025;fontColor=#ffffff;strokeColor=#6F0000;" vertex="1" parent="WIyWlLk6GJQsqaUBKTNV-1">
          <mxGeometry x="354" y="600" width="120" height="60" as="geometry" />
        </mxCell>
        <mxCell id="MPABOSV00BWpkClz_oib-42" style="edgeStyle=orthogonalEdgeStyle;rounded=0;orthogonalLoop=1;jettySize=auto;html=1;exitX=0.5;exitY=1;exitDx=0;exitDy=0;entryX=0.5;entryY=0;entryDx=0;entryDy=0;" edge="1" parent="WIyWlLk6GJQsqaUBKTNV-1" source="MPABOSV00BWpkClz_oib-50" target="MPABOSV00BWpkClz_oib-53">
          <mxGeometry relative="1" as="geometry" />
        </mxCell>
        <mxCell id="MPABOSV00BWpkClz_oib-43" style="edgeStyle=orthogonalEdgeStyle;rounded=0;orthogonalLoop=1;jettySize=auto;html=1;exitX=0.5;exitY=1;exitDx=0;exitDy=0;entryX=0.5;entryY=0;entryDx=0;entryDy=0;" edge="1" parent="WIyWlLk6GJQsqaUBKTNV-1" source="MPABOSV00BWpkClz_oib-50" target="MPABOSV00BWpkClz_oib-52">
          <mxGeometry relative="1" as="geometry" />
        </mxCell>
        <mxCell id="MPABOSV00BWpkClz_oib-44" value="case &quot;DOS&quot;" style="edgeLabel;html=1;align=center;verticalAlign=middle;resizable=0;points=[];" vertex="1" connectable="0" parent="MPABOSV00BWpkClz_oib-43">
          <mxGeometry x="0.8405" relative="1" as="geometry">
            <mxPoint y="2" as="offset" />
          </mxGeometry>
        </mxCell>
        <mxCell id="MPABOSV00BWpkClz_oib-45" style="edgeStyle=orthogonalEdgeStyle;rounded=0;orthogonalLoop=1;jettySize=auto;html=1;exitX=0.5;exitY=1;exitDx=0;exitDy=0;entryX=0.5;entryY=0;entryDx=0;entryDy=0;" edge="1" parent="WIyWlLk6GJQsqaUBKTNV-1" source="MPABOSV00BWpkClz_oib-50" target="MPABOSV00BWpkClz_oib-51">
          <mxGeometry relative="1" as="geometry" />
        </mxCell>
        <mxCell id="MPABOSV00BWpkClz_oib-46" style="edgeStyle=orthogonalEdgeStyle;rounded=0;orthogonalLoop=1;jettySize=auto;html=1;exitX=0.5;exitY=1;exitDx=0;exitDy=0;entryX=0.5;entryY=0;entryDx=0;entryDy=0;" edge="1" parent="WIyWlLk6GJQsqaUBKTNV-1" source="MPABOSV00BWpkClz_oib-50" target="MPABOSV00BWpkClz_oib-54">
          <mxGeometry relative="1" as="geometry" />
        </mxCell>
        <mxCell id="MPABOSV00BWpkClz_oib-47" style="edgeStyle=orthogonalEdgeStyle;rounded=0;orthogonalLoop=1;jettySize=auto;html=1;exitX=0.5;exitY=1;exitDx=0;exitDy=0;entryX=0.5;entryY=0;entryDx=0;entryDy=0;" edge="1" parent="WIyWlLk6GJQsqaUBKTNV-1" source="MPABOSV00BWpkClz_oib-50" target="MPABOSV00BWpkClz_oib-55">
          <mxGeometry relative="1" as="geometry" />
        </mxCell>
        <mxCell id="MPABOSV00BWpkClz_oib-48" style="edgeStyle=orthogonalEdgeStyle;rounded=0;orthogonalLoop=1;jettySize=auto;html=1;exitX=0.5;exitY=1;exitDx=0;exitDy=0;entryX=0.5;entryY=0;entryDx=0;entryDy=0;" edge="1" parent="WIyWlLk6GJQsqaUBKTNV-1" source="MPABOSV00BWpkClz_oib-50" target="MPABOSV00BWpkClz_oib-56">
          <mxGeometry relative="1" as="geometry" />
        </mxCell>
        <mxCell id="MPABOSV00BWpkClz_oib-49" value="case &quot;SEIS&quot;" style="edgeLabel;html=1;align=center;verticalAlign=middle;resizable=0;points=[];" vertex="1" connectable="0" parent="MPABOSV00BWpkClz_oib-48">
          <mxGeometry x="0.88" y="-1" relative="1" as="geometry">
            <mxPoint x="1" y="5" as="offset" />
          </mxGeometry>
        </mxCell>
        <mxCell id="MPABOSV00BWpkClz_oib-50" value="switch dado2" style="shape=hexagon;perimeter=hexagonPerimeter2;whiteSpace=wrap;html=1;fixedSize=1;fillColor=#6a00ff;fontColor=#ffffff;strokeColor=#3700CC;" vertex="1" parent="WIyWlLk6GJQsqaUBKTNV-1">
          <mxGeometry x="354" y="685" width="120" height="50" as="geometry" />
        </mxCell>
        <mxCell id="MPABOSV00BWpkClz_oib-71" style="edgeStyle=orthogonalEdgeStyle;rounded=0;orthogonalLoop=1;jettySize=auto;html=1;exitX=0.5;exitY=1;exitDx=0;exitDy=0;entryX=0.5;entryY=0;entryDx=0;entryDy=0;" edge="1" parent="WIyWlLk6GJQsqaUBKTNV-1" source="MPABOSV00BWpkClz_oib-51" target="MPABOSV00BWpkClz_oib-65">
          <mxGeometry relative="1" as="geometry" />
        </mxCell>
        <mxCell id="MPABOSV00BWpkClz_oib-51" value="resultado++" style="shape=process;whiteSpace=wrap;html=1;backgroundOutline=1;fillColor=#1ba1e2;fontColor=#ffffff;strokeColor=#006EAF;" vertex="1" parent="WIyWlLk6GJQsqaUBKTNV-1">
          <mxGeometry x="4" y="805" width="120" height="60" as="geometry" />
        </mxCell>
        <mxCell id="MPABOSV00BWpkClz_oib-70" style="edgeStyle=orthogonalEdgeStyle;rounded=0;orthogonalLoop=1;jettySize=auto;html=1;exitX=0.5;exitY=1;exitDx=0;exitDy=0;entryX=0.5;entryY=0;entryDx=0;entryDy=0;" edge="1" parent="WIyWlLk6GJQsqaUBKTNV-1" source="MPABOSV00BWpkClz_oib-52" target="MPABOSV00BWpkClz_oib-65">
          <mxGeometry relative="1" as="geometry" />
        </mxCell>
        <mxCell id="MPABOSV00BWpkClz_oib-52" value="resultado += 2" style="shape=process;whiteSpace=wrap;html=1;backgroundOutline=1;fillColor=#1ba1e2;fontColor=#ffffff;strokeColor=#006EAF;" vertex="1" parent="WIyWlLk6GJQsqaUBKTNV-1">
          <mxGeometry x="144" y="805" width="120" height="60" as="geometry" />
        </mxCell>
        <mxCell id="MPABOSV00BWpkClz_oib-69" style="edgeStyle=orthogonalEdgeStyle;rounded=0;orthogonalLoop=1;jettySize=auto;html=1;exitX=0.5;exitY=1;exitDx=0;exitDy=0;entryX=0.5;entryY=0;entryDx=0;entryDy=0;" edge="1" parent="WIyWlLk6GJQsqaUBKTNV-1" source="MPABOSV00BWpkClz_oib-53" target="MPABOSV00BWpkClz_oib-65">
          <mxGeometry relative="1" as="geometry" />
        </mxCell>
        <mxCell id="MPABOSV00BWpkClz_oib-53" value="resultado += 3" style="shape=process;whiteSpace=wrap;html=1;backgroundOutline=1;fillColor=#1ba1e2;fontColor=#ffffff;strokeColor=#006EAF;" vertex="1" parent="WIyWlLk6GJQsqaUBKTNV-1">
          <mxGeometry x="284" y="805" width="120" height="60" as="geometry" />
        </mxCell>
        <mxCell id="MPABOSV00BWpkClz_oib-66" style="edgeStyle=orthogonalEdgeStyle;rounded=0;orthogonalLoop=1;jettySize=auto;html=1;exitX=0.5;exitY=1;exitDx=0;exitDy=0;entryX=0.5;entryY=0;entryDx=0;entryDy=0;" edge="1" parent="WIyWlLk6GJQsqaUBKTNV-1" source="MPABOSV00BWpkClz_oib-54" target="MPABOSV00BWpkClz_oib-65">
          <mxGeometry relative="1" as="geometry" />
        </mxCell>
        <mxCell id="MPABOSV00BWpkClz_oib-54" value="resultado += 4" style="shape=process;whiteSpace=wrap;html=1;backgroundOutline=1;fillColor=#1ba1e2;fontColor=#ffffff;strokeColor=#006EAF;" vertex="1" parent="WIyWlLk6GJQsqaUBKTNV-1">
          <mxGeometry x="424" y="805" width="120" height="60" as="geometry" />
        </mxCell>
        <mxCell id="MPABOSV00BWpkClz_oib-67" style="edgeStyle=orthogonalEdgeStyle;rounded=0;orthogonalLoop=1;jettySize=auto;html=1;exitX=0.5;exitY=1;exitDx=0;exitDy=0;entryX=0.5;entryY=0;entryDx=0;entryDy=0;" edge="1" parent="WIyWlLk6GJQsqaUBKTNV-1" source="MPABOSV00BWpkClz_oib-55" target="MPABOSV00BWpkClz_oib-65">
          <mxGeometry relative="1" as="geometry" />
        </mxCell>
        <mxCell id="MPABOSV00BWpkClz_oib-55" value="resultado += 5" style="shape=process;whiteSpace=wrap;html=1;backgroundOutline=1;fillColor=#1ba1e2;fontColor=#ffffff;strokeColor=#006EAF;" vertex="1" parent="WIyWlLk6GJQsqaUBKTNV-1">
          <mxGeometry x="564" y="805" width="120" height="60" as="geometry" />
        </mxCell>
        <mxCell id="MPABOSV00BWpkClz_oib-68" style="edgeStyle=orthogonalEdgeStyle;rounded=0;orthogonalLoop=1;jettySize=auto;html=1;exitX=0.5;exitY=1;exitDx=0;exitDy=0;entryX=0.5;entryY=0;entryDx=0;entryDy=0;" edge="1" parent="WIyWlLk6GJQsqaUBKTNV-1" source="MPABOSV00BWpkClz_oib-56" target="MPABOSV00BWpkClz_oib-65">
          <mxGeometry relative="1" as="geometry" />
        </mxCell>
        <mxCell id="MPABOSV00BWpkClz_oib-56" value="resultado += 6" style="shape=process;whiteSpace=wrap;html=1;backgroundOutline=1;fillColor=#1ba1e2;fontColor=#ffffff;strokeColor=#006EAF;" vertex="1" parent="WIyWlLk6GJQsqaUBKTNV-1">
          <mxGeometry x="704" y="805" width="120" height="60" as="geometry" />
        </mxCell>
        <mxCell id="MPABOSV00BWpkClz_oib-57" value="case &quot;CINCO&quot;" style="edgeLabel;html=1;align=center;verticalAlign=middle;resizable=0;points=[];" vertex="1" connectable="0" parent="WIyWlLk6GJQsqaUBKTNV-1">
          <mxGeometry x="623.9999999999998" y="785.0019047619048" as="geometry" />
        </mxCell>
        <mxCell id="MPABOSV00BWpkClz_oib-58" value="case &quot;CUATRO&quot;" style="edgeLabel;html=1;align=center;verticalAlign=middle;resizable=0;points=[];" vertex="1" connectable="0" parent="WIyWlLk6GJQsqaUBKTNV-1">
          <mxGeometry x="483.9999999999998" y="785.0019047619048" as="geometry" />
        </mxCell>
        <mxCell id="MPABOSV00BWpkClz_oib-59" value="case &quot;TRES&quot;" style="edgeLabel;html=1;align=center;verticalAlign=middle;resizable=0;points=[];" vertex="1" connectable="0" parent="WIyWlLk6GJQsqaUBKTNV-1">
          <mxGeometry x="343.9999999999998" y="785.0019047619048" as="geometry" />
        </mxCell>
        <mxCell id="MPABOSV00BWpkClz_oib-60" value="case &quot;UNO&quot;" style="edgeLabel;html=1;align=center;verticalAlign=middle;resizable=0;points=[];" vertex="1" connectable="0" parent="WIyWlLk6GJQsqaUBKTNV-1">
          <mxGeometry x="63.99999999999977" y="785.0019047619048" as="geometry" />
        </mxCell>
        <mxCell id="MPABOSV00BWpkClz_oib-73" style="edgeStyle=orthogonalEdgeStyle;rounded=0;orthogonalLoop=1;jettySize=auto;html=1;exitX=0.5;exitY=1;exitDx=0;exitDy=0;entryX=0.5;entryY=0;entryDx=0;entryDy=0;" edge="1" parent="WIyWlLk6GJQsqaUBKTNV-1" source="MPABOSV00BWpkClz_oib-65" target="MPABOSV00BWpkClz_oib-72">
          <mxGeometry relative="1" as="geometry" />
        </mxCell>
        <mxCell id="MPABOSV00BWpkClz_oib-65" value="out (dado1 + dado2 &quot;=&quot; resultado)" style="rounded=1;whiteSpace=wrap;html=1;fillColor=#60a917;fontColor=#ffffff;strokeColor=#2D7600;" vertex="1" parent="WIyWlLk6GJQsqaUBKTNV-1">
          <mxGeometry x="354" y="920" width="120" height="60" as="geometry" />
        </mxCell>
        <mxCell id="MPABOSV00BWpkClz_oib-74" style="edgeStyle=orthogonalEdgeStyle;rounded=0;orthogonalLoop=1;jettySize=auto;html=1;exitX=0.5;exitY=1;exitDx=0;exitDy=0;" edge="1" parent="WIyWlLk6GJQsqaUBKTNV-1" source="MPABOSV00BWpkClz_oib-72">
          <mxGeometry relative="1" as="geometry">
            <mxPoint x="414" y="1070" as="targetPoint" />
          </mxGeometry>
        </mxCell>
        <mxCell id="MPABOSV00BWpkClz_oib-72" value="" style="ellipse;whiteSpace=wrap;html=1;aspect=fixed;fillColor=#647687;fontColor=#ffffff;strokeColor=#314354;" vertex="1" parent="WIyWlLk6GJQsqaUBKTNV-1">
          <mxGeometry x="404" y="1030" width="20" height="20" as="geometry" />
        </mxCell>
      </root>
    </mxGraphModel>
  </diagram>
</mxfile>
